<svg xmlns="http://www.w3.org/2000/svg" width="94.382" height="17.647" viewBox="0 0 94.382 17.647">
  <g id="Group_26" data-name="Group 26" transform="translate(-321.873 -1035.171)">
    <g id="google-plus" transform="translate(350.477 1035.172)">
      <g id="Group_18" data-name="Group 18" transform="translate(19.373 3.522)">
        <g id="Group_17" data-name="Group 17">
          <path id="Path_13" data-name="Path 13" d="M357.284,163.522V160h-1.761v3.522H352v1.761h3.523v3.522h1.761v-3.522h3.522v-1.761Z" transform="translate(-352 -160)" fill="#fff"/>
        </g>
      </g>
      <g id="Group_20" data-name="Group 20" transform="translate(0 0)">
        <g id="Group_19" data-name="Group 19">
          <path id="Path_14" data-name="Path 14" d="M8.806,103.045v3.522h4.982a5.284,5.284,0,1,1-4.982-7.045,5.205,5.205,0,0,1,3.422,1.275l2.314-2.656A8.727,8.727,0,0,0,8.806,96a8.806,8.806,0,1,0,8.806,8.806v-1.761Z" transform="translate(0 -96)" fill="#fff"/>
        </g>
      </g>
    </g>
    <g id="linkedin-logo" transform="translate(398.348 1035.172)">
      <path id="Path_15" data-name="Path 15" d="M4.317,2.488A2,2,0,0,1,2.146,4.482H2.121A2,2,0,1,1,2.171.491,2,2,0,0,1,4.317,2.488ZM.225,17.607H4.064V6.06H.225ZM13.487,5.79A3.813,3.813,0,0,0,10.027,7.7v.037H10a.187.187,0,0,0,.025-.037V6.061H6.188c.05,1.082,0,11.547,0,11.547h3.838V11.159a2.592,2.592,0,0,1,.126-.936,2.108,2.108,0,0,1,1.968-1.406c1.391,0,1.947,1.061,1.947,2.612v6.179h3.838v-6.62C17.907,7.438,16.012,5.79,13.487,5.79Z" transform="translate(0 -0.491)" fill="#fff"/>
    </g>
    <path id="Path_16" data-name="Path 16" d="M76.659,17.647h-3.8V9.735H70.769V6.1h2.092V4.061C72.861,2.187,74.033,0,77.337,0a17.514,17.514,0,0,1,2.056.114l.351.046-.084,3.4-.386,0s-.869-.008-1.816-.008c-.7,0-.8.174-.8.866V6.1h3.11L79.6,9.736H76.659v7.912h0Z" transform="translate(251.104 1035.172)" fill="#fff"/>
  </g>
</svg>
